<?xml version="1.0" standalone="no"?>
<!DOCTYPE svg PUBLIC "-//W3C//DTD SVG 20010904//EN"
 "http://www.w3.org/TR/2001/REC-SVG-20010904/DTD/svg10.dtd">
<svg version="1.0" xmlns="http://www.w3.org/2000/svg"
 width="256.000000pt" height="256.000000pt" viewBox="0 0 256.000000 256.000000"
 preserveAspectRatio="xMidYMid meet">
<metadata>
Created by potrace 1.11, written by Peter Selinger 2001-2013
</metadata>
<g transform="translate(0.000000,256.000000) scale(0.100000,-0.100000)"
fill="#000000" stroke="none">
<path d="M190 2451 c-19 -10 -48 -37 -65 -60 l-30 -43 0 -1077 0 -1077 24 -36
c13 -19 40 -46 59 -59 l36 -24 1066 0 1066 0 36 24 c19 13 46 40 59 59 l24 36
3 584 2 585 -105 -5 c-58 -3 -105 -2 -105 1 0 3 16 26 35 50 19 24 35 50 35
58 0 25 -63 72 -116 88 -70 20 -72 20 -158 -19 l-75 -34 -93 65 c-51 36 -94
67 -96 68 -2 1 2 23 9 49 10 39 9 50 -5 71 -25 37 -20 52 34 109 27 29 50 59
50 67 0 23 -50 58 -94 64 -36 6 -54 1 -132 -37 -81 -39 -95 -43 -159 -41 -38
1 -88 8 -111 16 -22 8 -207 132 -412 276 l-372 261 -187 0 c-164 0 -193 -2
-223 -19z m530 -1826 c0 -18 -5 -25 -20 -25 -15 0 -20 7 -20 25 0 18 5 25 20
25 15 0 20 -7 20 -25z m1260 0 c0 -20 -5 -25 -25 -25 -20 0 -25 5 -25 25 0 20
5 25 25 25 20 0 25 -5 25 -25z m-1574 -140 c26 -80 51 -142 55 -138 5 5 28 69
51 143 32 97 48 136 61 138 9 2 17 -2 17 -10 0 -7 -22 -80 -48 -163 l-48 -150
-34 -3 -35 -3 -49 153 c-27 84 -51 159 -53 166 -3 7 4 12 16 12 17 0 27 -21
67 -145z m1714 105 l0 -40 45 0 c33 0 45 -4 45 -14 0 -10 -14 -16 -42 -18
l-43 -3 -3 -78 c-3 -93 5 -107 60 -107 27 0 38 -4 36 -12 -5 -15 -50 -22 -84
-14 -50 13 -54 27 -54 182 0 137 1 144 20 144 17 0 20 -7 20 -40z m-1416 -36
c13 -5 16 -26 16 -130 0 -117 -1 -124 -20 -124 -19 0 -20 7 -20 130 0 72 2
130 4 130 2 0 11 -3 20 -6z m298 -21 c15 -13 18 -32 18 -109 0 -112 -10 -124
-102 -124 l-58 0 0 -50 c0 -43 -3 -50 -20 -50 -19 0 -20 7 -20 153 0 83 -3
162 -6 175 -6 22 -5 22 82 22 67 0 92 -4 106 -17z m308 -3 c15 -15 20 -33 20
-70 l0 -50 -85 0 -85 0 0 -28 c0 -43 17 -52 93 -52 50 0 68 -3 65 -12 -3 -9
-30 -14 -74 -16 -59 -2 -75 1 -97 18 -26 20 -27 26 -27 107 0 113 8 123 102
123 55 0 72 -4 88 -20z m237 3 c3 -8 -11 -13 -39 -15 l-43 -3 -3 -108 c-2 -96
-5 -108 -20 -105 -15 3 -17 19 -20 113 -2 96 0 111 15 123 22 16 105 12 110
-5z m271 1 c20 -14 22 -23 22 -109 0 -113 -10 -125 -102 -125 l-58 0 0 -51 c0
-47 -2 -50 -22 -47 -23 3 -23 5 -26 176 l-2 172 83 0 c58 0 89 -5 105 -16z
m162 -110 c0 -124 0 -125 -22 -122 -22 3 -23 7 -26 126 l-3 122 26 0 25 0 0
-126z"/>
<path d="M860 430 l0 -91 58 3 57 3 0 85 0 85 -57 3 -58 3 0 -91z"/>
<path d="M1170 506 c-6 -8 -10 -25 -8 -38 3 -21 9 -23 61 -26 63 -3 75 6 63
53 -6 22 -11 25 -55 25 -30 0 -53 -5 -61 -14z"/>
<path d="M1680 425 l0 -95 48 0 c26 0 53 5 60 12 12 12 17 134 6 162 -5 12
-20 16 -60 16 l-54 0 0 -95z"/>
</g>
</svg>
